<svg xmlns="http://www.w3.org/2000/svg" width="360" height="900" viewBox="0 0 360 900">
    <defs>
        <clipPath id="prefix__clip-path">
            <path id="prefix__Rectangle_50" d="M0 0H360V900H0z" data-name="Rectangle 50" transform="translate(840)" style="stroke:#707070;fill:#fff"/>
        </clipPath>
        <style>
            .prefix__cls-5{fill:#fff}
        </style>
    </defs>
    <g id="prefix__Mask_Group_4" data-name="Mask Group 4" transform="translate(-840)">
        <g id="prefix__digital_agency" data-name="digital agency" transform="rotate(-90 815.98 97.312)" style="isolation:isolate;opacity:.2">
            <g id="prefix__Group_1160" data-name="Group 1160" transform="translate(73.293 406.827)" style="isolation:isolate">
                <path id="prefix__Path_877" d="M102.117 437a15.394 15.394 0 01-6.739 6.5 23.423 23.423 0 01-10.737 2.263H73.293V408.2h11.349q9.484 0 14.626 4.985t5.141 13.77A20.8 20.8 0 01102.117 437zm-5.648 1.334q4.156-4.076 4.156-11.378t-4.155-11.371q-4.156-4.076-12.095-4.079h-7.3v30.9h7.3q7.939.003 12.095-4.07z" class="prefix__cls-5" data-name="Path 877" transform="translate(-73.293 -405.488)"/>
                <path id="prefix__Path_878" d="M98.257 407.52a2.882 2.882 0 012-.693 2.784 2.784 0 011.971.693 2.421 2.421 0 01.746 1.865 2.36 2.36 0 01-.746 1.811 2.777 2.777 0 01-1.971.695 2.874 2.874 0 01-2-.695 2.32 2.32 0 01-.772-1.811 2.379 2.379 0 01.772-1.865zm3.864 10.494v29.093h-3.784v-29.093z" class="prefix__cls-5" data-name="Path 878" transform="translate(-49.746 -406.827)"/>
                <path id="prefix__Path_879" d="M129.814 414.6a11.6 11.6 0 014.29 6.074v-7.994h3.676v29.785a14.388 14.388 0 01-1.7 7.112 11.973 11.973 0 01-4.742 4.744A14.108 14.108 0 01124.4 456a15.123 15.123 0 01-9.35-2.745 12.645 12.645 0 01-4.768-7.432h3.73a9.376 9.376 0 003.542 5.062 11.046 11.046 0 006.634 1.865 10.61 10.61 0 005.034-1.2 8.691 8.691 0 003.57-3.542 11.226 11.226 0 001.306-5.543v-8.683a11.61 11.61 0 01-4.29 6.074 12.387 12.387 0 01-7.538 2.289 13.807 13.807 0 01-7.061-1.812 12.334 12.334 0 01-4.848-5.2 19.069 19.069 0 010-15.875 12.247 12.247 0 014.823-5.168 13.9 13.9 0 017.086-1.784 12.386 12.386 0 017.544 2.294zm-14.439 4.128q-2.957 3.123-2.956 8.5t2.956 8.5a10.326 10.326 0 007.86 3.118 10.884 10.884 0 005.565-1.446 10.147 10.147 0 003.889-4.079 13.877 13.877 0 000-12.2 10.137 10.137 0 00-3.889-4.075 10.884 10.884 0 00-5.567-1.437 10.323 10.323 0 00-7.858 3.117z" class="prefix__cls-5" data-name="Path 879" transform="translate(-38.893 -401.491)"/>
                <path id="prefix__Path_880" d="M133.249 407.52a2.877 2.877 0 012-.693 2.781 2.781 0 011.971.693 2.422 2.422 0 01.746 1.865 2.36 2.36 0 01-.746 1.811 2.774 2.774 0 01-1.971.695 2.869 2.869 0 01-2-.695 2.32 2.32 0 01-.772-1.811 2.379 2.379 0 01.772-1.865zm3.864 10.494v29.093h-3.785v-29.093z" class="prefix__cls-5" data-name="Path 880" transform="translate(-15.687 -406.827)"/>
                <path id="prefix__Path_881" d="M159.039 441.91v3.3h-3.461q-4.212 0-6.289-2t-2.078-6.741v-17.1h-4.42v-3.254h4.42v-7.349h3.783v7.349h7.994v3.254h-7.994v17.154q0 3.093 1.119 4.237t3.943 1.145z" class="prefix__cls-5" data-name="Path 881" transform="translate(-5.648 -404.934)"/>
                <path id="prefix__Path_882" d="M180.008 414.6a11.6 11.6 0 014.288 6.074v-7.994h3.676v29.093H184.3v-7.99a11.607 11.607 0 01-4.288 6.074 12.4 12.4 0 01-7.54 2.289 13.8 13.8 0 01-7.059-1.812 12.31 12.31 0 01-4.848-5.2 19.049 19.049 0 010-15.875 12.23 12.23 0 014.821-5.168 13.909 13.909 0 017.086-1.784 12.4 12.4 0 017.536 2.293zm-14.439 4.128q-2.957 3.123-2.958 8.5t2.958 8.5a10.325 10.325 0 007.858 3.118 10.879 10.879 0 005.567-1.437 10.139 10.139 0 003.891-4.079 13.894 13.894 0 000-12.2 10.128 10.128 0 00-3.891-4.075 10.879 10.879 0 00-5.567-1.437 10.322 10.322 0 00-7.858 3.108z" class="prefix__cls-5" data-name="Path 882" transform="translate(9.961 -401.491)"/>
                <path id="prefix__Path_883" d="M186.884 407.258v39.429H183.1v-39.429z" class="prefix__cls-5" data-name="Path 883" transform="translate(33.587 -406.408)"/>
                <path id="prefix__Path_884" d="M230.02 436.183h-17.1l-3.412 9.162h-3.994l13.851-36.708h4.209l13.855 36.708h-4.049zm-1.12-2.983l-7.406-20.245-7.51 20.245z" class="prefix__cls-5" data-name="Path 884" transform="translate(55.399 -405.065)"/>
                <path id="prefix__Path_885" d="M250.207 414.6a11.614 11.614 0 014.29 6.074v-7.994h3.676v29.785a14.388 14.388 0 01-1.7 7.112 11.965 11.965 0 01-4.744 4.744A14.093 14.093 0 01244.8 456a15.125 15.125 0 01-9.352-2.745 12.648 12.648 0 01-4.77-7.432h3.732a9.366 9.366 0 003.542 5.062 11.044 11.044 0 006.632 1.865 10.618 10.618 0 005.036-1.2 8.691 8.691 0 003.57-3.542 11.226 11.226 0 001.306-5.543v-8.683a11.621 11.621 0 01-4.29 6.074 12.389 12.389 0 01-7.54 2.289 13.8 13.8 0 01-7.059-1.812 12.323 12.323 0 01-4.848-5.2 19.049 19.049 0 010-15.875 12.235 12.235 0 014.823-5.168 13.907 13.907 0 017.084-1.784 12.388 12.388 0 017.541 2.294zm-14.439 4.128q-2.957 3.123-2.958 8.5t2.958 8.5a10.329 10.329 0 007.86 3.118 10.884 10.884 0 005.567-1.437 10.147 10.147 0 003.889-4.079 13.877 13.877 0 000-12.2 10.136 10.136 0 00-3.889-4.075 10.884 10.884 0 00-5.567-1.437 10.326 10.326 0 00-7.86 3.108z" class="prefix__cls-5" data-name="Path 885" transform="translate(78.288 -401.491)"/>
                <path id="prefix__Path_886" d="M273.27 437.084a7.913 7.913 0 003.2-5.332h3.943a11.851 11.851 0 01-4.422 7.517 14.287 14.287 0 01-9.162 2.875 14.984 14.984 0 01-7.382-1.784 12.52 12.52 0 01-5.032-5.168 18.418 18.418 0 010-15.931 12.5 12.5 0 015.032-5.168 14.984 14.984 0 017.382-1.784 14.6 14.6 0 017.378 1.784 12.14 12.14 0 014.742 4.768 13.368 13.368 0 011.624 6.5 15.857 15.857 0 01-.213 2.717h-24.087a12.272 12.272 0 001.517 6.155 9.178 9.178 0 003.811 3.651 11.168 11.168 0 005.064 1.172 10.794 10.794 0 006.605-1.972zm-11.615-20.566a9.233 9.233 0 00-3.809 3.6 12.218 12.218 0 00-1.573 6.046h20.566a10.722 10.722 0 00-1.172-6.019 8.7 8.7 0 00-3.73-3.623 11.248 11.248 0 00-5.113-1.172 11.37 11.37 0 00-5.169 1.168z" class="prefix__cls-5" data-name="Path 886" transform="translate(101.231 -401.491)"/>
                <path id="prefix__Path_887" d="M298.353 415.449q3.167 3.226 3.171 9.458v16.943h-3.678v-16.678q0-4.739-2.4-7.272a8.6 8.6 0 00-6.553-2.528 9.009 9.009 0 00-6.952 2.794q-2.584 2.8-2.585 8.233v15.451h-3.783v-29.092h3.783v7.142a10.1 10.1 0 014.049-5.7 11.747 11.747 0 016.713-1.973 11.046 11.046 0 018.235 3.222z" class="prefix__cls-5" data-name="Path 887" transform="translate(123.594 -401.571)"/>
                <path id="prefix__Path_888" d="M320.834 415.237a12.138 12.138 0 014.45 7.779h-3.889a8.288 8.288 0 00-3.25-5.462 11.493 11.493 0 00-11.747-.716 9.234 9.234 0 00-3.783 3.915 15.536 15.536 0 000 12.947 9.244 9.244 0 003.783 3.915 10.768 10.768 0 005.2 1.281 10.6 10.6 0 006.551-2 8.269 8.269 0 003.25-5.462h3.889a12.137 12.137 0 01-4.45 7.783 14.205 14.205 0 01-9.19 2.928 14.973 14.973 0 01-7.378-1.784 12.517 12.517 0 01-5.036-5.168 18.418 18.418 0 010-15.931 12.494 12.494 0 015.036-5.168 14.973 14.973 0 017.378-1.784 14.2 14.2 0 019.186 2.927z" class="prefix__cls-5" data-name="Path 888" transform="translate(144.855 -401.491)"/>
                <path id="prefix__Path_889" d="M322.8 412.5l10.123 24.244 9.324-24.244h4.153l-17.1 42.839h-4.262l5.861-14.066L318.64 412.5z" class="prefix__cls-5" data-name="Path 889" transform="translate(165.511 -401.309)"/>
            </g>
        </g>
        <path id="prefix__Subtraction_9" d="M548.938 241.119a136.645 136.645 0 01-32.815-3.814 112.024 112.024 0 01-28.712-11.44 106.487 106.487 0 01-23.641-18.275 107.86 107.86 0 01-17.6-24.311 120.155 120.155 0 01-10.946-29.3 146.686 146.686 0 01-3.633-33.239 146.693 146.693 0 013.633-33.253 120.182 120.182 0 0110.94-29.3 109.488 109.488 0 0117.563-24.353 107.723 107.723 0 0123.515-18.4 110.06 110.06 0 0128.583-11.57A134.729 134.729 0 01548.6.007a139.379 139.379 0 0139.569 5.309 102 102 0 0132.183 16 94.584 94.584 0 0123.389 25.024 101.25 101.25 0 0113.162 32.485h-49.62a56.605 56.605 0 00-22.3-25.653 66.813 66.813 0 00-36.048-9.557A69.731 69.731 0 00512.726 53a63.664 63.664 0 00-24.479 26.826 90.835 90.835 0 00-8.73 40.9 102.035 102.035 0 004.988 33.111 67.1 67.1 0 0014.964 24.9 64.1 64.1 0 0023.6 15.593 86.573 86.573 0 0030.889 5.2 72.518 72.518 0 0023.682-3.772 64.651 64.651 0 0035.126-29.341 80.76 80.76 0 008.593-23.892h-80.133v-33.86h119.712v45.593a112.121 112.121 0 01-19.617 43.257 105.991 105.991 0 01-38.227 31.685 107.866 107.866 0 01-25.359 8.928 134.55 134.55 0 01-28.797 2.991zm-148.885-2.009h-49.964l-13.413-38.9h.02l-2.487-7.109-.559-1.6-12.32-35.427-.539-.794-34.748-99.6-34.7 99.414-.034.02-15.257 43.64h.148l-14.209 40.351h-49.96L259.216 5.037H313.2l86.85 234.056zm619.349 0H878.229V2.366h141.164v37.557H925.5v61.365h83.832v36.2H925.5V201.2h93.891v37.9zm-182.753 0H709.9V2.366h47.281v200.515h79.459V239.1zm-695.468 0H0V2.366h141.173v37.557H47.281v61.365h83.832v36.2H47.281V201.2h93.891v37.9z" data-name="Subtraction 9" transform="rotate(-90 903.35 61.35)" style="fill:#fbb12f;opacity:.5"/>
    </g>
</svg>
